<?xml version="1.0" encoding="utf-8"?>
<!-- Generator: Adobe Illustrator 27.5.0, SVG Export Plug-In . SVG Version: 6.00 Build 0)  -->
<svg version="1.1" xmlns="http://www.w3.org/2000/svg" xmlns:xlink="http://www.w3.org/1999/xlink" x="0px" y="0px"
	 viewBox="0 0 500 500" style="enable-background:new 0 0 500 500;" xml:space="preserve">
<g id="BACKGROUND">
	<rect x="-0.04" style="fill-rule:evenodd;clip-rule:evenodd;fill:#2FC4AB;" width="500" height="500"/>
	<rect x="-0.04" y="297.78" style="fill-rule:evenodd;clip-rule:evenodd;fill:#1BB59B;" width="500" height="202.22"/>
</g>
<g id="OBJECTS">
	<g>
		<g>
			<path style="opacity:0.2;fill-rule:evenodd;clip-rule:evenodd;" d="M230.196,371.409c3.724,0.737,5.403,2.246,4.844,3.901
				c9.202-1.174,19.044-1.077,24.394,0.437c2.747,0.777,3.895,1.811,3.599,2.928h0c0.241,0.33-1.023,1.591-2.615,2.377l-0.01-0.001
				c-0.315,0.164-0.657,0.327-1.026,0.489c2.718,0.056,5.242,0.213,7.379,0.463c37.772,0.096,55.748-2.358,60.411-5.678
				c2.13-1.516,1.327-3.219-1.689-4.915c-3.117-1.752-8.62-3.529-15.748-5.125c-14.946-3.346-36.615-5.824-58.768-5.721
				c0.405,1.378-2.745,2.371-7.754,3.02c-5.852,0.758-5.529,4.753-13.181,2.417c-7.653-2.336-0.501-4.143-0.501-4.143
				s-0.304,0.05-0.842,0.132l-0.006,0.009l-0.007-0.007c-3.478,0.524-16.638,2.319-21.65,0.313
				c-3.604-1.443,5.128-2.394,12.118-2.268c-6.65-0.122-18.498-0.378-20.295-2.307c-1.399-1.501,7.577-0.948,15.632-0.863
				c-8.77-0.907-13.681-1.725-14.871-2.852c-1.189-1.127,5.444-1.227,17.463-0.206c9.262,0.788,20.88,2.04,27.833,3.79
				c25.883-0.223,51.73,2.747,69.679,6.765c9.282,2.078,16.552,4.452,20.815,6.848c4.364,2.453,5.554,4.896,2.536,7.045
				c-5.416,3.856-24.913,6.732-65.139,6.717c-0.644,0.464-1.858,0.919-3.561,1.334c12.463,0.582,22.992,2.073,25.694,3.821
				c2.542,1.644-2.548,3.061-12.038,3.709c5.873,0.887,9.961,1.932,10.556,2.837c0.67,1.018-3.248,1.609-9.675,1.653
				c12.385,2.183,20.782,4.668,20.11,6.182c-0.631,1.424-9.112,1.595-20.799,0.632c4.567,1.422,6.863,2.686,5.639,3.353
				c-1.376,0.751-6.869,0.561-13.967-0.344c8.987,3.199,13.001,6.012,9.137,6.886c-3.635,0.822-13.236-0.3-23.987-2.613
				c2.036,1.575,1.927,2.719-0.788,2.97c-0.355,0.033-0.746,0.049-1.167,0.05c2.788,1.654,5.355,3.146,6.355,3.584
				c5.539,2.424,13.584,2.653,21.266,3.661c7.682,1.008,11.152,0.783,13.515,0.711c2.363-0.073,8.964-0.379,10.788,0.475
				c1.825,0.854,0.17,0.997,0.17,0.997s2.171,0.341,2.355,0.852c0.185,0.512-2.577,0.53-2.577,0.53s1.996,0.487,1.452,0.974
				c-0.545,0.487-3.392,0.689-3.392,0.689s0.476,0.795-1.595,1.15c-2.071,0.355-7.003,0.033-7.003,0.033s0.982,0.619-3.406,1.174
				c-4.388,0.555-4.35,0.521-5.417,0.085c-1.067-0.435-5.263-0.293-9.827-1.174c-4.565-0.882-10.375-0.907-14.627-1.551
				c-4.251-0.645-9.254-2.592-11.408-4.821c-1.942-2.009-5.085-3.712-8.868-5.319c-0.82,0.884-2.627,1.397-5.416,1.397
				c-2.79,0-6.181-0.513-9.733-1.397c1.186,1.607,3.307,3.31,7.576,5.319c4.734,2.229,5.753,4.176,3.493,4.821
				c-2.26,0.644-7.991,0.67-9.831,1.551c-1.841,0.881-6.477,0.738-6.197,1.174c0.279,0.436-2.377,1.504-8.481,0.949
				c-6.103-0.555-7.035-1.174-7.035-1.174s-3.937,0.322-7.106-0.033c-3.168-0.355-5.148-1.149-5.148-1.149s-3.47-0.202-5.52-0.689
				c-2.05-0.487-1.561-0.974-1.561-0.974s-2.818-0.019-4.216-0.531c-1.398-0.512-0.28-0.853-0.28-0.853s-2.096-0.143-2.911-0.997
				c-0.815-0.854,6.732-0.548,9.318-0.475c2.586,0.072,9.552-0.737,14.118-1.745c4.567-1.008,11.904-1.237,9.949-3.661
				c-0.35-0.434-2.365-1.905-4.665-3.543c-3.774-0.34-7.76-1.704-10.7-3.513c-3.476,2.616-9.992,3.939-16.557,3.065
				c-6.176-0.822-10.688-3.361-11.95-6.322c-3.836,0.688-8.034,0.788-11.344,0.133c-3.724-0.737-5.403-2.246-4.844-3.901
				c-9.202,1.174-19.044,1.077-24.394-0.437c-5.033-1.424-4.699-3.708,0.051-5.792c-5.605-0.115-10.39-0.661-12.644-1.561
				c-2.537-1.013-1.244-2.226,2.789-3.206c-12.462-0.583-22.992-2.074-25.693-3.821c-2.542-1.644,2.548-3.061,12.037-3.708
				c-5.873-0.888-9.961-1.932-10.556-2.837c-0.67-1.018,3.248-1.608,9.675-1.652c-2.898-0.511-5.577-1.038-7.973-1.566
				c-7.813,1.061-12.709,2.887-13.853,5.66c-2.308,5.597,9.864,15.002,42.688,29.605c5.305,0.107,11.334,1.255,17.063,2.88
				c6.162,1.748,21.095,2.691,16.566,4.12c-4.528,1.43-18.046-1.603-18.046-1.603c-0.557,0.275-0.21,0.667,0.671,1.128
				c6.543,1.21,15.684,2.418,16.203,3.654c0.25,0.595-1.452,0.85-4.404,0.793c1.109,0.539,1.585,0.996,0.894,1.303
				c-2.516,1.115-15.103-1.292-24.561-5.002c-3.952-1.551-7.765-3.392-9.301-4.835c-37.725-16.432-51.596-27.076-48.942-33.511
				c1.358-3.294,6.858-5.493,15.592-6.802c-1.967-0.759-2.956-1.45-2.708-2.009c0.631-1.424,9.112-1.595,20.799-0.632
				c-4.567-1.422-6.864-2.686-5.64-3.353c1.377-0.751,6.869-0.561,13.968,0.344c-8.987-3.199-13.001-6.012-9.137-6.886
				c3.635-0.822,13.236,0.3,23.987,2.614c-2.036-1.576-1.927-2.72,0.787-2.97c3.055-0.282,8.652,0.637,14.518,2.248
				c-3.182-3.357-1.737-5.745,4.284-5.745c5.664,0,13.812,2.113,20.748,5.159c1.039-1.307,3.526-2.025,7.004-1.792
				c3.913,0.263,8.113,1.664,11.178,3.55c3.476-2.616,9.992-3.938,16.557-3.065c6.176,0.823,10.687,3.361,11.949,6.322
				C222.689,370.854,226.886,370.755,230.196,371.409z"/>
			<path style="fill:#DE9009;" d="M203.652,254.347c3.168,0.299,5.493,3.11,5.194,6.278c-0.299,3.168-3.11,5.493-6.278,5.194
				c-25.323-2.454-45.85,3.351-56.829,22.667c-11.63,20.46-13.497,55.867-0.725,112.065c0.698,3.105-1.253,6.189-4.359,6.888
				c-3.106,0.698-6.189-1.253-6.888-4.358c-13.472-59.279-11.057-97.412,1.945-120.285
				C149.365,258.778,173.82,251.456,203.652,254.347z"/>
			<g>
				<g>
					<path style="fill-rule:evenodd;clip-rule:evenodd;fill:#DE9009;" d="M256.789,414.876c-1.29,7.676,0.702,14.385,3.958,16.604
						c3.256,2.219,9.026,2.309,12.229,5.344c3.203,3.036,7.618,2.545,8.012,4.046c0.394,1.5,4.702,5.181,9.947,3.269
						c5.245-1.911,5.221-4.044,5.221-4.044s4.434,1.108,7.054-0.114c2.62-1.222,3.372-3.96,3.372-3.96s3.159-0.696,4.456-2.373
						c1.297-1.677,0.054-3.356,0.054-3.356s2.79-0.064,3.397-1.827c0.606-1.763-1.038-2.936-1.038-2.936s1.875-0.492,1.371-3.434
						c-0.505-2.941-7.579-1.886-10.054-1.638c-2.474,0.248-10.691-2.54-16.815-6.012c-6.124-3.472-13.815-4.26-15.607-12.611
						c-0.561-2.616-0.934-16.196-1.296-24.604c-0.152-3.523-22.226-2.624-17.805,9.833
						C256.279,395.611,258.63,403.922,256.789,414.876z"/>
					<path style="fill-rule:evenodd;clip-rule:evenodd;fill:#BF7A04;" d="M305.646,432.343v-1.256
						c1.225,1.295,1.68,3.071,0.936,4.935C306.802,434.836,306.433,433.519,305.646,432.343L305.646,432.343z M305.646,426.182
						v-0.19c3.19,0.263,5.062,1.45,5.446,4.301C310.465,428.219,308.703,426.884,305.646,426.182L305.646,426.182z M313.451,425.531
						c-1.091-1.382-3.286-1.902-6.094-1.18C310.169,422.787,312.363,423.338,313.451,425.531z M296.156,440.095
						c0.515-2.778-1.269-6.26-5.46-7.966C295.506,433.004,297.563,436.118,296.156,440.095L296.156,440.095z M305.646,425.992v0.19
						c-0.409-0.094-0.84-0.176-1.296-0.248C304.804,425.94,305.236,425.958,305.646,425.992L305.646,425.992z M305.646,431.087
						v1.256c-1.056-1.579-2.863-2.902-5.008-3.308C302.737,429.108,304.518,429.893,305.646,431.087z"/>
				</g>
				<g>
					<path style="fill-rule:evenodd;clip-rule:evenodd;fill:#DE9009;" d="M240.348,414.876c1.29,7.676-0.702,14.385-3.957,16.604
						c-3.256,2.219-9.026,2.309-12.229,5.344c-3.203,3.036-7.618,2.545-8.012,4.046c-0.394,1.5-4.701,5.181-9.947,3.269
						c-5.245-1.911-5.221-4.044-5.221-4.044s-4.435,1.108-7.054-0.114c-2.62-1.222-3.371-3.96-3.371-3.96s-3.159-0.696-4.456-2.373
						c-1.297-1.677-0.055-3.356-0.055-3.356s-2.79-0.064-3.396-1.827c-0.607-1.763,1.038-2.936,1.038-2.936
						s-1.876-0.492-1.371-3.434c0.505-2.941,7.579-1.886,10.054-1.638c2.474,0.248,10.691-2.54,16.815-6.012
						c6.124-3.472,13.815-4.26,15.607-12.611c0.561-2.616,0.935-16.196,1.296-24.604c0.152-3.523,22.226-2.624,17.804,9.833
						C240.858,395.611,238.507,403.922,240.348,414.876z"/>
					<path style="fill-rule:evenodd;clip-rule:evenodd;fill:#BF7A04;" d="M200.981,440.095c-0.516-2.778,1.269-6.26,5.459-7.966
						C201.632,433.004,199.575,436.118,200.981,440.095L200.981,440.095z M191.491,432.344v-1.257
						c1.129-1.193,2.91-1.98,5.008-2.053C194.354,429.441,192.546,430.765,191.491,432.344L191.491,432.344z M191.491,426.182v-0.19
						c0.41-0.034,0.842-0.053,1.296-0.057C192.332,426.006,191.9,426.089,191.491,426.182z M191.491,425.992v0.19
						c-3.057,0.701-4.819,2.036-5.446,4.111C186.429,427.442,188.301,426.255,191.491,425.992L191.491,425.992z M191.491,431.087
						v1.257c-0.786,1.176-1.155,2.493-0.935,3.678C189.811,434.158,190.266,432.383,191.491,431.087L191.491,431.087z
						 M183.686,425.531c1.091-1.382,3.285-1.902,6.094-1.18C186.969,422.787,184.775,423.338,183.686,425.531z"/>
				</g>
			</g>
			<path style="fill:#DE9009;" d="M319.566,284.804c-3.181-0.162-5.627-2.872-5.465-6.052c0.162-3.18,2.872-5.627,6.052-5.465
				c44.773,2.374,69.896-6.5,80.567-18.958c4.355-5.085,6.137-10.789,5.752-16.464c-0.4-5.895-3.101-11.887-7.674-17.278
				c-11.25-13.265-33.334-22.523-60.658-18.564c-3.155,0.449-6.078-1.745-6.527-4.9c-0.449-3.155,1.745-6.077,4.9-6.526
				c31.621-4.581,57.586,6.613,71.092,22.538c6.16,7.263,9.815,15.568,10.384,23.962c0.585,8.614-2.05,17.191-8.507,24.73
				C396.737,276.706,368.449,287.397,319.566,284.804z"/>
			<path style="fill-rule:evenodd;clip-rule:evenodd;fill:#F7A616;" d="M311.828,237.825c2.586,2.537,1.932,7.736-1.185,13.436
				c11.017-4.044,20.708-3.709,23.718,1.505c2.832,4.905-1.031,12.773-9.001,19.948c5.427,0.399,9.368,2.276,10.23,5.378
				c0.971,3.49-2.195,7.666-7.744,11.043c11.562,2.006,19.788,7.142,19.788,13.163c0,5.664-7.28,10.546-17.77,12.775
				c4.501,3.058,6.975,6.655,6.171,9.773c-0.904,3.508-5.734,5.541-12.229,5.691c9.011,7.519,13.566,16.079,10.555,21.293
				c-2.832,4.906-11.577,5.493-21.776,2.178c2.369,4.899,2.712,9.251,0.457,11.549c-2.536,2.586-7.736,1.932-13.436-1.185
				c4.044,11.017,3.709,20.709-1.505,23.718c-4.905,2.832-12.773-1.031-19.948-9.002c-0.399,5.427-2.276,9.368-5.378,10.23
				c-3.49,0.971-7.666-2.195-11.043-7.744c-2.006,11.562-7.142,19.788-13.163,19.787c-5.664,0-10.546-7.28-12.775-17.77
				c-3.058,4.501-6.655,6.975-9.773,6.171c-3.508-0.904-5.541-5.734-5.691-12.228c-7.519,9.01-16.079,13.566-21.294,10.555
				c-4.905-2.832-5.493-11.577-2.178-21.776c-4.899,2.369-9.251,2.713-11.549,0.457c-2.586-2.536-1.932-7.736,1.185-13.436
				c-11.017,4.044-20.708,3.709-23.718-1.506c-2.832-4.905,1.032-12.772,9.002-19.947c-5.427-0.399-9.368-2.277-10.23-5.378
				c-0.971-3.49,2.195-7.666,7.744-11.043c-11.562-2.006-19.788-7.142-19.788-13.164c0-5.664,7.28-10.545,17.77-12.774
				c-4.501-3.059-6.975-6.655-6.171-9.773c0.904-3.507,5.734-5.541,12.229-5.691c-9.01-7.519-13.566-16.079-10.555-21.294
				c2.832-4.906,11.577-5.492,21.776-2.178c-2.369-4.899-2.712-9.252-0.457-11.549c2.536-2.586,7.736-1.932,13.436,1.185
				c-4.044-11.016-3.709-20.708,1.505-23.718c4.905-2.832,12.773,1.031,19.948,9.002c0.398-5.427,2.276-9.368,5.378-10.23
				c3.491-0.971,7.666,2.195,11.044,7.744c2.006-11.562,7.142-19.788,13.163-19.788c5.664,0,10.545,7.28,12.775,17.77
				c3.058-4.501,6.655-6.975,9.773-6.171c3.507,0.904,5.541,5.734,5.691,12.229c7.519-9.01,16.079-13.566,21.294-10.555
				c4.905,2.832,5.493,11.577,2.177,21.776C305.178,235.914,309.53,235.57,311.828,237.825z"/>
			<path style="fill-rule:evenodd;clip-rule:evenodd;fill:#DE9009;" d="M225.678,271.91c10.567-0.351,19.425,8.136,19.784,18.955
				c0.359,10.82-7.917,19.874-18.484,20.225c-10.567,0.35-19.425-8.136-19.784-18.955
				C206.834,281.316,215.11,272.261,225.678,271.91z"/>
			<path style="fill-rule:evenodd;clip-rule:evenodd;fill:#E6E6E6;" d="M226.699,266.663c10.567-0.351,19.425,8.135,19.784,18.955
				c0.359,10.819-7.917,19.874-18.484,20.225c-10.568,0.35-19.426-8.136-19.785-18.955
				C207.855,276.068,216.131,267.013,226.699,266.663z"/>
			<path style="fill-rule:evenodd;clip-rule:evenodd;fill:#FFFFFF;" d="M227.491,266.686c9.504-0.315,17.47,7.317,17.793,17.047
				c0.323,9.73-7.12,17.874-16.624,18.189c-9.504,0.315-17.47-7.317-17.794-17.047C210.544,275.145,217.987,267.001,227.491,266.686
				z"/>
			<path style="fill-rule:evenodd;clip-rule:evenodd;fill:#4D4D4D;" d="M232.388,267.814c4.747-0.158,8.725,3.654,8.887,8.513
				c0.161,4.859-3.556,8.927-8.303,9.084c-4.747,0.157-8.725-3.655-8.886-8.513C223.924,272.038,227.641,267.972,232.388,267.814z"
				/>
			<path style="fill-rule:evenodd;clip-rule:evenodd;fill:#FFFFFF;" d="M236.776,274.61c1.397-0.046,2.57,1.077,2.617,2.508
				c0.048,1.432-1.048,2.629-2.445,2.676c-1.398,0.046-2.57-1.076-2.618-2.508C234.283,275.855,235.378,274.657,236.776,274.61z"/>
			<path style="fill-rule:evenodd;clip-rule:evenodd;fill:#DE9009;" d="M267.903,271.91c10.568-0.351,19.426,8.136,19.784,18.955
				c0.359,10.82-7.917,19.874-18.484,20.225c-10.567,0.35-19.425-8.136-19.784-18.955
				C249.06,281.316,257.335,272.261,267.903,271.91z"/>
			<path style="fill-rule:evenodd;clip-rule:evenodd;fill:#E6E6E6;" d="M268.924,266.663c10.567-0.351,19.425,8.135,19.784,18.955
				c0.359,10.819-7.917,19.874-18.485,20.225c-10.568,0.35-19.425-8.136-19.785-18.955
				C250.08,276.068,258.356,267.013,268.924,266.663z"/>
			<path style="fill-rule:evenodd;clip-rule:evenodd;fill:#FFFFFF;" d="M269.716,266.686c9.504-0.315,17.47,7.317,17.793,17.047
				c0.323,9.73-7.12,17.874-16.623,18.189c-9.505,0.315-17.471-7.317-17.794-17.047
				C252.769,275.145,260.212,267.001,269.716,266.686z"/>
			<path style="fill-rule:evenodd;clip-rule:evenodd;fill:#4D4D4D;" d="M274.613,267.814c4.747-0.158,8.725,3.654,8.887,8.513
				c0.161,4.859-3.557,8.927-8.303,9.084c-4.747,0.157-8.725-3.655-8.886-8.513C266.149,272.038,269.866,267.972,274.613,267.814z"
				/>
			<path style="fill-rule:evenodd;clip-rule:evenodd;fill:#FFFFFF;" d="M279.001,274.61c1.397-0.046,2.57,1.077,2.617,2.508
				c0.047,1.432-1.048,2.629-2.446,2.676c-1.398,0.046-2.57-1.076-2.617-2.508C276.508,275.855,277.603,274.657,279.001,274.61z"/>
			<path style="fill-rule:evenodd;clip-rule:evenodd;fill:#DE9009;" d="M257.698,239.054c-3.338-12.358-14.27-12.004-15.802,0
				C242.556,224.091,254.73,222.934,257.698,239.054z"/>
			<path style="fill-rule:evenodd;clip-rule:evenodd;fill:#B07103;" d="M249.041,329.639c3.042,0,5.524-4.228,5.524-9.411
				c0-5.183-2.481-9.411-5.524-9.411c-3.042,0-5.524,4.228-5.524,9.411C243.517,325.412,245.998,329.639,249.041,329.639z"/>
			<path style="fill-rule:evenodd;clip-rule:evenodd;fill:#DE9009;" d="M286.678,251.205c4.717-11.9-4.257-18.156-12.664-9.451
				C283.493,230.157,293.941,236.51,286.678,251.205z"/>
			<path style="fill-rule:evenodd;clip-rule:evenodd;fill:#DE9009;" d="M268.995,257.535c0.466-12.793-10.083-15.688-15.096-4.673
				C258.954,238.764,270.926,241.258,268.995,257.535z"/>
			<path style="fill-rule:evenodd;clip-rule:evenodd;fill:#DE9009;" d="M292.395,271.842c7.984-10.005,1.227-18.608-9.355-12.736
				C295.491,250.781,303.63,259.907,292.395,271.842z"/>
			<path style="fill-rule:evenodd;clip-rule:evenodd;fill:#DE9009;" d="M306.017,279.05c9.569-8.502,4.373-18.128-7.053-14.14
				C312.648,258.821,319.118,269.198,306.017,279.05z"/>
			<path style="fill-rule:evenodd;clip-rule:evenodd;fill:#DE9009;" d="M292.23,297.967c12.127-4.099,11.094-14.989-0.982-15.772
				C306.223,281.924,308.134,294.002,292.23,297.967z"/>
			<path style="fill-rule:evenodd;clip-rule:evenodd;fill:#DE9009;" d="M301.308,315.46c12.791-0.481,14.899-11.215,3.544-15.4
				C319.286,304.059,317.684,316.182,301.308,315.46z"/>
			<path style="fill-rule:evenodd;clip-rule:evenodd;fill:#DE9009;" d="M283.4,323.084c12.221,3.806,17.783-5.613,8.469-13.341
				C304.148,318.321,298.6,329.219,283.4,323.084z"/>
			<path style="fill-rule:evenodd;clip-rule:evenodd;fill:#DE9009;" d="M284.098,341.119c9.71,8.341,18.551,1.898,13.065-8.889
				C305.033,344.974,295.619,352.778,284.098,341.119z"/>
			<path style="fill-rule:evenodd;clip-rule:evenodd;fill:#DE9009;" d="M253.84,332.392c6.691,10.913,17.079,7.486,15.159-4.463
				C272.59,342.47,261.239,347.018,253.84,332.392z"/>
			<path style="fill-rule:evenodd;clip-rule:evenodd;fill:#DE9009;" d="M264.103,342.828c7.981,10.008,17.87,5.33,14.496-6.292
				C283.95,350.526,273.244,356.435,264.103,342.828z"/>
			<path style="fill-rule:evenodd;clip-rule:evenodd;fill:#DE9009;" d="M243.022,343.989c2.766,12.498,13.704,12.648,15.786,0.726
				C257.46,359.633,245.246,360.228,243.022,343.989z"/>
			<path style="fill-rule:evenodd;clip-rule:evenodd;fill:#DE9009;" d="M229.654,332.79c-1.317,12.732,9.015,16.324,14.751,5.668
				C238.421,352.189,226.643,348.902,229.654,332.79z"/>
			<path style="fill-rule:evenodd;clip-rule:evenodd;fill:#DE9009;" d="M215.999,331.226c-4.847,11.848,4.057,18.202,12.559,9.59
				C218.952,352.308,208.575,345.841,215.999,331.226z"/>
			<path style="fill-rule:evenodd;clip-rule:evenodd;fill:#DE9009;" d="M204.13,352.253c-3.178,12.399,6.513,17.473,13.756,7.778
				C209.945,372.732,198.779,367.746,204.13,352.253z"/>
			<path style="fill-rule:evenodd;clip-rule:evenodd;fill:#DE9009;" d="M203.594,311.596c-9.767,8.274-4.8,18.02,6.717,14.304
				C196.486,331.663,190.265,321.135,203.594,311.596z"/>
			<path style="fill-rule:evenodd;clip-rule:evenodd;fill:#DE9009;" d="M205.536,294.02c-11.827,4.897-10.073,15.694,2.029,15.672
				C192.64,310.958,189.93,299.034,205.536,294.02z"/>
			<path style="fill-rule:evenodd;clip-rule:evenodd;fill:#DE9009;" d="M193.018,289.306c-12.352,3.357-11.982,14.289,0.024,15.803
				C178.078,304.471,176.903,292.3,193.018,289.306z"/>
			<path style="fill-rule:evenodd;clip-rule:evenodd;fill:#DE9009;" d="M206.167,274.291c-12.757-1.051-16.133,9.354-5.36,14.866
				C186.954,283.46,189.995,271.616,206.167,274.291z"/>
			<path style="fill-rule:evenodd;clip-rule:evenodd;fill:#DE9009;" d="M205.883,258.42c-12.16-3.997-17.869,5.334-8.678,13.206
				C185.062,262.857,190.781,252.048,205.883,258.42z"/>
			<path style="fill-rule:evenodd;clip-rule:evenodd;fill:#DE9009;" d="M223.225,259.027c-10.782-6.899-18.634,0.717-11.693,10.63
				C201.956,258.14,210.185,249.096,223.225,259.027z"/>
			<path style="fill-rule:evenodd;clip-rule:evenodd;fill:#DE9009;" d="M226.688,243.76c-8.941-9.16-18.313-3.519-13.796,7.708
				C206.171,238.082,216.234,231.135,226.688,243.76z"/>
			<path style="fill-rule:evenodd;clip-rule:evenodd;fill:#DE9009;" d="M243.541,250.916c-6.321-11.131-16.819-8.056-15.301,3.95
				C225.139,240.212,236.637,236.049,243.541,250.916z"/>
			<path style="fill-rule:evenodd;clip-rule:evenodd;fill:#DE9009;" d="M258.593,265.908c-3.337-12.358-14.27-12.004-15.802,0
				C243.451,250.945,255.625,249.788,258.593,265.908z"/>
			<path style="fill-rule:evenodd;clip-rule:evenodd;fill:#DE9009;" d="M264.106,323.515c9.71,8.341,18.551,1.899,13.065-8.889
				C285.042,327.37,275.628,335.174,264.106,323.515z"/>
			<path style="fill-rule:evenodd;clip-rule:evenodd;fill:#DE9009;" d="M225.248,313.921c-4.846,11.847,4.058,18.201,12.56,9.59
				C228.202,335.002,217.825,328.535,225.248,313.921z"/>
			<path style="fill-rule:evenodd;clip-rule:evenodd;fill:#DE9009;" d="M225.477,350.692c-1.318,12.732,9.015,16.324,14.751,5.668
				C234.244,370.091,222.465,366.805,225.477,350.692z"/>
			<path style="fill-rule:evenodd;clip-rule:evenodd;fill:#DE9009;" d="M262.194,359.843c6.691,10.913,17.08,7.486,15.159-4.462
				C280.945,369.921,269.594,374.469,262.194,359.843z"/>
			<path style="fill-rule:evenodd;clip-rule:evenodd;fill:#DE9009;" d="M303.391,332.632c12.221,3.806,17.783-5.613,8.469-13.341
				C324.139,327.87,318.591,338.767,303.391,332.632z"/>
			<path style="fill-rule:evenodd;clip-rule:evenodd;fill:#DE9009;" d="M314.608,298.564c12.127-4.099,11.094-14.989-0.983-15.772
				C328.601,282.521,330.513,294.599,314.608,298.564z"/>
			<path style="fill-rule:evenodd;clip-rule:evenodd;fill:#DE9009;" d="M189.16,269.219c-12.757-1.051-16.133,9.353-5.36,14.866
				C169.947,278.388,172.988,266.544,189.16,269.219z"/>
			<path style="fill-rule:evenodd;clip-rule:evenodd;fill:#DE9009;" d="M186.587,324.725c-9.767,8.273-4.8,18.02,6.717,14.304
				C179.478,344.791,173.257,334.264,186.587,324.725z"/>
			<path style="fill-rule:evenodd;clip-rule:evenodd;fill:#DE9009;" d="M200.452,333.93c-7.926,10.051-1.119,18.614,9.428,12.682
				C197.477,355.009,189.286,345.93,200.452,333.93z"/>
			<path style="fill-rule:evenodd;clip-rule:evenodd;fill:#DE9009;" d="M182.859,302.971c-11.827,4.897-10.072,15.694,2.029,15.672
				C169.964,319.909,167.253,307.985,182.859,302.971z"/>
			<path style="fill-rule:evenodd;clip-rule:evenodd;fill:#DE9009;" d="M242.724,365.771c2.766,12.498,13.703,12.648,15.786,0.727
				C257.161,381.414,244.947,382.01,242.724,365.771z"/>
			<path style="fill-rule:evenodd;clip-rule:evenodd;fill:#DE9009;" d="M283.202,360.812c9.71,8.34,18.551,1.898,13.065-8.889
				C304.138,364.667,294.724,372.471,283.202,360.812z"/>
			<path style="fill-rule:evenodd;clip-rule:evenodd;fill:#DE9009;" d="M314.437,318.145c12.792-0.481,14.899-11.215,3.543-15.399
				C332.415,306.745,330.813,318.868,314.437,318.145z"/>
			<g>
				<path style="fill-rule:evenodd;clip-rule:evenodd;fill:#DE9009;" d="M140.324,422.481c8.397,6.042,17.01,7.307,18.507,2.726
					c1.454-4.452-6.557-8.793-11.171-13.15L140.324,422.481z"/>
				<path style="fill-rule:evenodd;clip-rule:evenodd;fill:#F7A616;" d="M149.348,408.733c0,0,8.83,10.446,15.568,5.521
					c6.738-4.925-6.737-8.171-10.198-14.193c-3.46-6.021-8.122-10.14-13.792-9.941c-9.514,0.333-8.721,14.626-5.676,25.079
					c3.722,12.781,12.591,21.071,16.83,17.228C157.157,427.827,144.523,413.384,149.348,408.733z"/>
			</g>
			<g>
				<path style="fill-rule:evenodd;clip-rule:evenodd;fill:#F7A616;" d="M349.977,197.955c1.338-10.185-12.933-17.006-24.065-20.76
					c-10.44-3.52-17.228-3.173-17.781,0.709c-0.552,3.882,3.095,6.699,10.462,9.825c-7.922-0.295-16.042-2.202-16.965,2.97
					c-1.185,6.645,10.267,7.527,16.729,7.947c-6.795-0.434-16.997,2.842-15.623,7.812c2.211,7.994,23.194-1.537,23.194-1.537
					s-9.945,6.224-5.903,14.27c4.042,8.046,9.894-5.716,16.917-8.327C343.968,208.253,349.18,204.026,349.977,197.955z"/>
				<path style="fill-rule:evenodd;clip-rule:evenodd;fill:#DE9009;" d="M325.858,182.941c-3.583,6.131-3.869,13.028-1.905,18.621
					C319.594,195.444,320.091,187.116,325.858,182.941z"/>
				<path style="fill-rule:evenodd;clip-rule:evenodd;fill:#DE9009;" d="M337.325,196.309c-6.655,1.284-9.898,5.044-12.46,9.095
					C325.751,199.28,330.989,196.052,337.325,196.309z"/>
			</g>
			<path style="opacity:0.2;" d="M327.148,271.037c-9.427-4.983-21.284-8.02-34.777-7.804c-1.725,4.746-6.409,8.166-12.422,10.401
				c-7.023,2.611-12.875,16.374-16.917,8.328c-4.042-8.046,5.903-14.27,5.903-14.27s-0.382,0.173-1.044,0.452l-0.02,0.032
				l0.004-0.025c-4.287,1.804-20.223,7.988-22.134,1.078c-1.374-4.969,8.828-8.246,15.623-7.811
				c-6.462-0.42-17.914-1.302-16.729-7.947c0.922-5.172,9.042-3.265,16.964-2.97c-7.367-3.127-11.014-5.943-10.462-9.825
				c0.553-3.882,7.341-4.229,17.781-0.709c8.044,2.713,17.727,7.028,21.974,13.056c16.476-0.482,31.118,3.464,42.544,9.83
				C333.167,263.988,329.954,268.331,327.148,271.037z"/>
		</g>
		<path style="opacity:0.5;fill-rule:evenodd;clip-rule:evenodd;" d="M-0.04,0h462.21L207.165,155.015
			c-60.604,36.841-80.927,115.362-29.986,166.561c50.941,51.199,130.738,31.983,166.711-29.144L499.96,27.231V500h-500V0z"/>
		<text transform="matrix(1 0 0 1 134.1309 56.746)" style="fill:#A6F7E9; font-family:'Barrio-Regular'; font-size:18.6361px;">SORRY, THE PAGE NOT FOUND</text>
		<g>
			<text transform="matrix(1 0 0 1 80.2285 125.8641)" style="fill:#FFFFFF; font-family:'Barrio-Regular'; font-size:80.206px;">404</text>
			<text transform="matrix(1 0 0 1 205.1787 125.8641)" style="fill:#E4397B; font-family:'Barrio-Regular'; font-size:80.206px;">ERROR</text>
		</g>
		<text transform="matrix(1 0 0 1 139.3057 157.162)" style="fill:#A6F7E9; font-family:'Barrio-Regular'; font-size:18.6358px;">RETURN TO THE HOME PAGE</text>
	</g>
</g>
<g id="DESIGNED_BY_FREEPIK">
	<g>
		<g>
			<path style="fill:#FFFFFF;" d="M181.047,466.607c-0.246,0-0.434,0.085-0.567,0.255c-0.133,0.17-0.199,0.421-0.199,0.753v2.392
				c-0.304-0.331-0.617-0.579-0.937-0.739c-0.204-0.101-0.437-0.171-0.701-0.208v1.167c0.278,0.003,0.534,0.086,0.769,0.246
				c0.24,0.165,0.429,0.402,0.57,0.712c0.141,0.311,0.211,0.682,0.211,1.114c0,0.458-0.07,0.842-0.211,1.149l0,0
				c-0.14,0.306-0.328,0.533-0.563,0.682c-0.234,0.148-0.492,0.222-0.775,0.223v1.208c0.105-0.019,0.207-0.046,0.305-0.079
				c0.247-0.08,0.477-0.199,0.689-0.356c0.212-0.156,0.427-0.359,0.644-0.608v0.16c0,0.297,0.072,0.525,0.217,0.685
				c0.145,0.16,0.328,0.24,0.549,0.24c0.226,0,0.409-0.078,0.552-0.231c0.143-0.154,0.214-0.386,0.214-0.694v-7.146
				c0-0.305-0.066-0.534-0.199-0.691C181.481,466.685,181.292,466.607,181.047,466.607z M178.643,469.06
				c-0.15-0.021-0.311-0.032-0.481-0.032c-0.807,0-1.458,0.284-1.953,0.848c-0.494,0.566-0.742,1.356-0.742,2.369
				c0,0.479,0.063,0.923,0.187,1.335c0.124,0.412,0.307,0.77,0.549,1.074c0.241,0.304,0.526,0.539,0.857,0.704
				c0.33,0.164,0.69,0.246,1.078,0.246c0.176,0,0.344-0.014,0.504-0.044v-1.208h-0.006c-0.281,0-0.54-0.079-0.778-0.236
				c-0.238-0.155-0.424-0.388-0.561-0.696c-0.136-0.309-0.204-0.682-0.204-1.122c0-0.415,0.064-0.78,0.193-1.095
				c0.128-0.315,0.309-0.556,0.543-0.724c0.233-0.168,0.499-0.253,0.795-0.253h0.018V469.06z"/>
			<path style="fill:#FFFFFF;" d="M188.412,472.527c0.233-0.122,0.35-0.385,0.35-0.793c0-0.438-0.113-0.87-0.339-1.294
				c-0.225-0.423-0.565-0.769-1.018-1.035c-0.453-0.268-0.996-0.4-1.628-0.4l-0.051,0v1.127c0.422,0.001,0.762,0.138,1.021,0.412
				c0.259,0.275,0.409,0.69,0.448,1.244h-1.469v0.92h1.7C187.85,472.708,188.179,472.647,188.412,472.527L188.412,472.527z
				 M185.726,475.601c0.056,0.002,0.112,0.003,0.169,0.003c0.455,0,0.858-0.059,1.207-0.178c0.352-0.12,0.641-0.268,0.873-0.448
				c0.231-0.18,0.404-0.368,0.519-0.564c0.115-0.196,0.172-0.367,0.172-0.514c0-0.166-0.052-0.294-0.155-0.386
				c-0.103-0.09-0.237-0.136-0.403-0.136c-0.154,0-0.274,0.035-0.357,0.107c-0.202,0.19-0.366,0.34-0.492,0.452
				c-0.126,0.111-0.265,0.215-0.416,0.312c-0.15,0.098-0.305,0.167-0.466,0.214c-0.16,0.044-0.337,0.067-0.531,0.067
				c-0.041,0-0.082-0.001-0.122-0.004V475.601z M185.726,469.005c-0.467,0.005-0.893,0.082-1.279,0.233
				c-0.4,0.157-0.736,0.381-1.009,0.674c-0.273,0.293-0.48,0.644-0.623,1.054c-0.143,0.409-0.214,0.853-0.214,1.332
				c0,1.017,0.289,1.822,0.867,2.415c0.546,0.56,1.299,0.857,2.258,0.888v-1.076c-0.242-0.017-0.465-0.086-0.671-0.209
				c-0.239-0.142-0.432-0.354-0.576-0.635c-0.145-0.281-0.218-0.605-0.222-0.973h1.469v-0.92h-1.469l0,0
				c0.055-0.546,0.213-0.959,0.472-1.238c0.259-0.28,0.59-0.418,0.994-0.418h0.003V469.005z"/>
			<path style="fill:#FFFFFF;" d="M193.839,472.09c-0.319-0.169-0.729-0.316-1.231-0.439c-0.425-0.103-0.756-0.19-0.997-0.261
				c-0.242-0.07-0.434-0.161-0.577-0.27c-0.142-0.109-0.213-0.248-0.213-0.419c0-0.186,0.096-0.341,0.291-0.465
				c0.194-0.126,0.437-0.187,0.73-0.187c0.286,0,0.511,0.047,0.677,0.142c0.166,0.095,0.31,0.222,0.433,0.38
				c0.151,0.19,0.284,0.332,0.401,0.427c0.116,0.095,0.258,0.143,0.424,0.143c0.23,0,0.408-0.061,0.532-0.178
				c0.124-0.119,0.186-0.272,0.186-0.457c0-0.171-0.058-0.345-0.175-0.523c-0.116-0.178-0.286-0.34-0.51-0.486
				c-0.223-0.146-0.502-0.264-0.837-0.35c-0.333-0.088-0.71-0.131-1.13-0.131c-0.535,0-0.99,0.086-1.367,0.259
				c-0.378,0.172-0.665,0.403-0.859,0.691c-0.194,0.289-0.291,0.596-0.291,0.92c0,0.363,0.105,0.67,0.315,0.92
				c0.21,0.249,0.489,0.45,0.84,0.602c0.35,0.152,0.804,0.298,1.362,0.436c0.494,0.12,0.85,0.244,1.066,0.375
				c0.216,0.131,0.323,0.338,0.323,0.622c0,0.187-0.104,0.352-0.311,0.497c-0.207,0.144-0.473,0.216-0.798,0.216
				c-0.4,0-0.715-0.071-0.947-0.213c-0.231-0.143-0.431-0.357-0.597-0.647c-0.083-0.149-0.17-0.267-0.261-0.35
				c-0.091-0.082-0.221-0.124-0.39-0.124c-0.194,0-0.355,0.064-0.481,0.19c-0.128,0.126-0.19,0.278-0.19,0.456
				c0,0.27,0.099,0.537,0.297,0.805c0.197,0.266,0.505,0.49,0.92,0.667c0.415,0.178,0.914,0.267,1.495,0.267
				c0.61,0,1.127-0.082,1.553-0.246c0.425-0.164,0.747-0.406,0.964-0.724c0.219-0.319,0.327-0.702,0.327-1.149
				c0-0.297-0.082-0.56-0.246-0.791C194.398,472.461,194.157,472.26,193.839,472.09z"/>
			<path style="fill:#FFFFFF;" d="M196.446,469.016c-0.237,0-0.43,0.081-0.578,0.243c-0.149,0.162-0.222,0.404-0.222,0.724v4.635
				c0,0.317,0.073,0.56,0.222,0.73c0.148,0.17,0.341,0.255,0.578,0.255c0.238,0,0.433-0.083,0.588-0.249
				c0.154-0.166,0.231-0.412,0.231-0.737v-4.682c0-0.289-0.077-0.514-0.231-0.677C196.88,469.097,196.684,469.016,196.446,469.016z"
				/>
			<path style="fill:#FFFFFF;" d="M196.464,466.677c-0.217,0-0.409,0.073-0.573,0.223c-0.164,0.149-0.246,0.337-0.246,0.567
				c0,0.254,0.08,0.449,0.24,0.588c0.16,0.138,0.353,0.208,0.578,0.208c0.217,0,0.405-0.071,0.564-0.211
				c0.158-0.14,0.238-0.335,0.238-0.585c0-0.258-0.081-0.453-0.243-0.588C196.86,466.745,196.674,466.677,196.464,466.677z"/>
			<path style="fill:#FFFFFF;" d="M203.586,469.016c-0.217,0-0.395,0.078-0.534,0.231c-0.139,0.155-0.207,0.372-0.207,0.653v0.22
				c-0.289-0.376-0.602-0.652-0.937-0.829c-0.204-0.106-0.431-0.18-0.68-0.223v1.158c0.462,0.007,0.836,0.191,1.122,0.553
				c0.291,0.367,0.436,0.883,0.436,1.543c0,0.416-0.076,0.768-0.225,1.059l0,0c-0.152,0.291-0.346,0.508-0.586,0.653
				c-0.235,0.141-0.484,0.214-0.747,0.216v1.163c0.244-0.043,0.466-0.12,0.664-0.231c0.327-0.182,0.615-0.448,0.864-0.797
				c-0.008,0.531-0.02,0.915-0.035,1.155c-0.016,0.24-0.07,0.464-0.164,0.673c-0.093,0.21-0.255,0.373-0.486,0.49
				c-0.206,0.104-0.487,0.162-0.843,0.173v1.129c0.561-0.007,1.034-0.067,1.418-0.183c0.409-0.122,0.741-0.31,0.994-0.563
				c0.253-0.254,0.437-0.574,0.552-0.961c0.115-0.389,0.173-0.851,0.173-1.39v-4.706c0-0.384-0.051-0.678-0.155-0.882
				C204.106,469.118,203.899,469.016,203.586,469.016z M201.227,469.069c-0.162-0.027-0.333-0.041-0.514-0.041
				c-0.384,0-0.736,0.068-1.056,0.204c-0.321,0.138-0.604,0.34-0.849,0.609c-0.245,0.268-0.433,0.599-0.566,0.992
				c-0.133,0.391-0.199,0.831-0.199,1.318c0,0.653,0.109,1.228,0.326,1.727c0.217,0.499,0.529,0.886,0.934,1.163
				c0.407,0.277,0.88,0.416,1.422,0.416c0.177,0,0.344-0.014,0.502-0.042v-1.163h-0.015c-0.455,0-0.826-0.168-1.113-0.504
				c-0.287-0.336-0.43-0.834-0.43-1.49c0-0.649,0.139-1.15,0.418-1.502c0.279-0.352,0.649-0.528,1.113-0.528h0.027V469.069
				L201.227,469.069z M201.227,476.878l-0.134,0.002c-0.205,0-0.387-0.02-0.545-0.056c-0.159-0.038-0.294-0.095-0.406-0.171
				c-0.112-0.078-0.216-0.17-0.309-0.279c-0.093-0.109-0.183-0.217-0.27-0.324c-0.178-0.209-0.386-0.314-0.624-0.314
				c-0.189,0-0.352,0.062-0.487,0.187c-0.135,0.124-0.202,0.285-0.202,0.482c0,0.262,0.119,0.517,0.356,0.763
				c0.238,0.247,0.576,0.449,1.014,0.605c0.439,0.156,0.939,0.234,1.496,0.234l0.11-0.001V476.878z"/>
			<path style="fill:#FFFFFF;" d="M210.938,470.084c-0.165-0.339-0.417-0.602-0.753-0.789c-0.337-0.186-0.718-0.28-1.146-0.28
				c-0.439,0-0.828,0.088-1.166,0.264c-0.339,0.176-0.65,0.452-0.935,0.828v-0.196c0-0.194-0.034-0.358-0.104-0.493
				c-0.07-0.134-0.162-0.234-0.276-0.302c-0.115-0.068-0.244-0.102-0.387-0.102c-0.233,0-0.417,0.077-0.552,0.229
				c-0.134,0.152-0.202,0.383-0.202,0.692v4.682c0,0.317,0.076,0.56,0.226,0.73c0.15,0.17,0.342,0.255,0.576,0.255
				c0.241,0,0.438-0.082,0.59-0.246c0.152-0.164,0.228-0.411,0.228-0.74v-2.03c0-0.661,0.04-1.111,0.119-1.353
				c0.11-0.3,0.284-0.537,0.522-0.71c0.237-0.173,0.501-0.258,0.789-0.258c0.444,0,0.74,0.142,0.888,0.425
				c0.148,0.283,0.223,0.692,0.223,1.225v2.7c0,0.317,0.074,0.56,0.226,0.73c0.15,0.17,0.346,0.255,0.587,0.255
				c0.238,0,0.431-0.083,0.578-0.249c0.149-0.166,0.223-0.412,0.223-0.737v-3.015c0-0.356-0.016-0.648-0.048-0.878
				C211.115,470.496,211.046,470.282,210.938,470.084z"/>
			<path style="fill:#FFFFFF;" d="M217.781,472.527c0.234-0.122,0.35-0.385,0.35-0.793c0-0.438-0.114-0.87-0.338-1.294
				c-0.226-0.423-0.565-0.769-1.019-1.035c-0.453-0.268-0.995-0.4-1.628-0.4l-0.051,0v1.127c0.422,0.001,0.762,0.138,1.021,0.412
				c0.259,0.275,0.409,0.69,0.448,1.244h-1.469v0.92h1.7C217.22,472.708,217.548,472.647,217.781,472.527L217.781,472.527z
				 M215.096,475.601c0.056,0.002,0.112,0.003,0.169,0.003c0.455,0,0.858-0.059,1.208-0.178c0.35-0.12,0.64-0.268,0.871-0.448
				c0.232-0.18,0.405-0.368,0.52-0.564c0.115-0.196,0.172-0.367,0.172-0.514c0-0.166-0.051-0.294-0.154-0.386
				c-0.103-0.09-0.238-0.136-0.404-0.136c-0.154,0-0.273,0.035-0.356,0.107c-0.201,0.19-0.366,0.34-0.492,0.452
				c-0.128,0.111-0.266,0.215-0.416,0.312c-0.151,0.098-0.306,0.167-0.465,0.214c-0.161,0.044-0.338,0.067-0.532,0.067
				c-0.041,0-0.081-0.001-0.121-0.004V475.601z M215.096,469.005c-0.467,0.005-0.893,0.082-1.279,0.233
				c-0.4,0.157-0.736,0.381-1.009,0.674c-0.273,0.293-0.481,0.644-0.624,1.054c-0.142,0.409-0.214,0.853-0.214,1.332
				c0,1.017,0.289,1.822,0.867,2.415c0.546,0.56,1.299,0.857,2.258,0.888v-1.076c-0.242-0.017-0.465-0.086-0.671-0.209
				c-0.239-0.142-0.431-0.354-0.576-0.635c-0.145-0.281-0.219-0.605-0.223-0.973h1.469v-0.92h-1.469l0,0
				c0.056-0.546,0.212-0.959,0.471-1.238c0.259-0.28,0.591-0.418,0.995-0.418h0.003V469.005z"/>
			<path style="fill:#FFFFFF;" d="M224.167,466.607c-0.245,0-0.435,0.085-0.567,0.255c-0.132,0.17-0.2,0.421-0.2,0.753v2.392
				c-0.304-0.331-0.616-0.579-0.937-0.739c-0.204-0.101-0.437-0.171-0.7-0.208v1.167c0.278,0.003,0.534,0.086,0.769,0.246
				c0.239,0.165,0.429,0.402,0.57,0.712c0.14,0.311,0.211,0.682,0.211,1.114c0,0.458-0.07,0.842-0.211,1.149l0,0
				c-0.14,0.306-0.328,0.533-0.564,0.682c-0.234,0.148-0.491,0.222-0.775,0.223v1.208c0.106-0.019,0.208-0.046,0.306-0.079
				c0.247-0.08,0.476-0.199,0.688-0.356c0.211-0.156,0.426-0.359,0.643-0.608v0.16c0,0.297,0.073,0.525,0.217,0.685
				c0.145,0.16,0.328,0.24,0.549,0.24c0.226,0,0.409-0.078,0.552-0.231c0.143-0.154,0.214-0.386,0.214-0.694v-7.146
				c0-0.305-0.066-0.534-0.199-0.691C224.601,466.685,224.412,466.607,224.167,466.607z M221.763,469.06
				c-0.15-0.021-0.311-0.032-0.48-0.032c-0.808,0-1.458,0.284-1.953,0.848c-0.495,0.566-0.742,1.356-0.742,2.369
				c0,0.479,0.062,0.923,0.187,1.335c0.124,0.412,0.308,0.77,0.549,1.074c0.241,0.304,0.527,0.539,0.857,0.704
				c0.33,0.164,0.689,0.246,1.077,0.246c0.176,0,0.344-0.014,0.504-0.044v-1.208h-0.006c-0.281,0-0.539-0.079-0.776-0.236
				c-0.238-0.155-0.425-0.388-0.561-0.696c-0.137-0.309-0.205-0.682-0.205-1.122c0-0.415,0.064-0.78,0.193-1.095
				c0.129-0.315,0.31-0.556,0.543-0.724c0.233-0.168,0.499-0.253,0.795-0.253h0.018V469.06z"/>
			<path style="fill:#FFFFFF;" d="M233.546,469.41c-0.406-0.254-0.878-0.382-1.416-0.382c-0.17,0-0.331,0.011-0.481,0.034v1.166
				l0.054-0.001c0.3,0,0.564,0.085,0.789,0.253c0.225,0.168,0.399,0.406,0.522,0.715c0.123,0.308,0.184,0.677,0.184,1.104
				c0,0.661-0.148,1.168-0.442,1.522l0,0c-0.294,0.355-0.646,0.532-1.053,0.532l-0.054-0.001v1.216
				c0.148,0.025,0.303,0.037,0.463,0.037c0.407,0,0.78-0.082,1.118-0.246c0.338-0.164,0.626-0.397,0.864-0.698
				c0.237-0.3,0.418-0.656,0.543-1.065c0.125-0.41,0.187-0.859,0.187-1.35c0-0.665-0.112-1.241-0.336-1.725
				C234.266,470.036,233.951,469.666,233.546,469.41z M231.649,469.061c-0.262,0.039-0.494,0.112-0.694,0.219
				c-0.317,0.168-0.627,0.41-0.932,0.727v-2.475c0-0.297-0.068-0.524-0.202-0.685c-0.134-0.16-0.326-0.24-0.575-0.24
				c-0.238,0-0.423,0.084-0.556,0.252c-0.132,0.168-0.198,0.416-0.198,0.744v7.075c0,0.304,0.068,0.535,0.205,0.692
				c0.136,0.156,0.319,0.234,0.549,0.234c0.226,0,0.412-0.078,0.558-0.234c0.146-0.157,0.22-0.387,0.22-0.692v-0.16
				c0.178,0.205,0.322,0.361,0.43,0.463c0.109,0.103,0.241,0.203,0.395,0.3c0.154,0.098,0.341,0.175,0.561,0.234
				c0.078,0.021,0.159,0.039,0.24,0.053v-1.216c-0.454-0.012-0.823-0.186-1.107-0.52c-0.295-0.346-0.442-0.841-0.442-1.486
				c0-0.439,0.069-0.818,0.208-1.136c0.139-0.319,0.328-0.562,0.57-0.73c0.226-0.158,0.484-0.242,0.771-0.252V469.061z"/>
			<path style="fill:#FFFFFF;" d="M240.489,469.114c-0.112-0.066-0.23-0.098-0.353-0.098c-0.171,0-0.303,0.03-0.395,0.09
				c-0.093,0.058-0.181,0.173-0.264,0.344c-0.083,0.17-0.176,0.406-0.279,0.706l-1.3,3.71l-1.371-3.988
				c-0.091-0.277-0.195-0.489-0.314-0.638c-0.119-0.148-0.295-0.223-0.528-0.223c-0.135,0-0.264,0.035-0.389,0.108
				c-0.124,0.071-0.222,0.166-0.294,0.285c-0.071,0.118-0.107,0.246-0.107,0.385c0,0.131,0.062,0.341,0.184,0.628l1.994,5.022
				l-0.148,0.362c-0.111,0.265-0.209,0.466-0.294,0.601c-0.085,0.138-0.181,0.233-0.287,0.288c-0.107,0.056-0.254,0.084-0.44,0.084
				c-0.074,0-0.164-0.012-0.266-0.035c-0.083-0.024-0.169-0.037-0.257-0.037c-0.221,0-0.388,0.051-0.5,0.152
				c-0.113,0.101-0.169,0.245-0.169,0.43c0,0.273,0.118,0.461,0.356,0.564c0.237,0.103,0.593,0.154,1.068,0.154
				c0.487,0,0.873-0.074,1.161-0.222c0.287-0.148,0.517-0.361,0.691-0.638c0.175-0.277,0.353-0.659,0.535-1.145l2.113-5.531
				c0.051-0.142,0.095-0.283,0.13-0.421c0.036-0.139,0.061-0.246,0.078-0.321c0-0.123-0.032-0.239-0.093-0.35
				C240.689,469.267,240.602,469.179,240.489,469.114z"/>
		</g>
		<g>
			<g>
				<path style="fill:#FFFFFF;" d="M262.89,466.602c-0.534,0-0.954,0.069-1.26,0.204c-0.307,0.137-0.527,0.354-0.654,0.652
					c-0.129,0.301-0.191,0.703-0.191,1.211v0.487h-0.387c-0.543,0-0.815,0.192-0.815,0.582c0,0.174,0.066,0.316,0.196,0.424
					c0.132,0.111,0.315,0.163,0.558,0.163h0.447v4.294c0,0.319,0.074,0.563,0.227,0.73c0.154,0.17,0.344,0.254,0.573,0.254
					c0.243,0,0.438-0.084,0.589-0.254c0.155-0.167,0.23-0.411,0.23-0.73v-4.294h0.395c0.291,0,0.517-0.035,0.681-0.107
					c0.166-0.071,0.245-0.24,0.245-0.502c0-0.374-0.306-0.56-0.926-0.56h-0.395v-0.386c0-0.322,0.043-0.568,0.122-0.74
					c0.087-0.172,0.273-0.259,0.566-0.259c0.107,0,0.241,0.014,0.389,0.034c0.156,0.026,0.267,0.038,0.33,0.038
					c0.134,0,0.252-0.054,0.348-0.16c0.101-0.108,0.15-0.236,0.15-0.384C264.31,466.832,263.839,466.602,262.89,466.602z"/>
				<path style="fill:#FFFFFF;" d="M268.049,469.268c-0.32-0.171-0.647-0.255-0.99-0.255c-0.342,0-0.611,0.084-0.818,0.255
					c-0.203,0.171-0.401,0.421-0.593,0.755c-0.014-0.334-0.08-0.584-0.198-0.755c-0.119-0.171-0.313-0.255-0.583-0.255
					c-0.526,0-0.788,0.365-0.788,1.093v4.513c0,0.323,0.078,0.569,0.225,0.734c0.149,0.168,0.34,0.25,0.579,0.25
					c0.237,0,0.432-0.081,0.586-0.247c0.151-0.163,0.234-0.41,0.234-0.737v-1.355c0-0.486,0.014-0.899,0.044-1.239
					c0.034-0.336,0.09-0.63,0.17-0.878c0.084-0.243,0.201-0.425,0.353-0.553c0.149-0.122,0.345-0.186,0.582-0.186
					c0.172,0,0.373,0.036,0.602,0.108c0.226,0.073,0.371,0.112,0.433,0.112c0.157,0,0.304-0.064,0.441-0.194
					c0.135-0.126,0.204-0.292,0.204-0.488C268.531,469.666,268.371,469.439,268.049,469.268z"/>
				<path style="fill:#FFFFFF;" d="M274.136,472.525c0.233-0.122,0.351-0.386,0.351-0.791c0-0.44-0.113-0.87-0.339-1.296
					c-0.222-0.423-0.565-0.77-1.018-1.034c-0.453-0.27-0.997-0.403-1.629-0.403l-0.052,0v1.13c0.425,0.001,0.762,0.137,1.023,0.413
					c0.26,0.273,0.407,0.688,0.446,1.241h-1.469v0.921h1.702C273.575,472.706,273.903,472.646,274.136,472.525L274.136,472.525z
					 M271.449,475.6c0.056,0.002,0.114,0.003,0.171,0.003c0.454,0,0.857-0.06,1.207-0.179c0.349-0.117,0.639-0.268,0.874-0.446
					c0.233-0.182,0.405-0.368,0.522-0.566c0.112-0.195,0.167-0.365,0.167-0.512c0-0.167-0.048-0.293-0.152-0.386
					c-0.105-0.092-0.238-0.139-0.406-0.139c-0.152,0-0.271,0.038-0.355,0.109c-0.202,0.189-0.368,0.34-0.494,0.449
					c-0.128,0.113-0.264,0.217-0.415,0.312c-0.15,0.097-0.307,0.17-0.466,0.213c-0.161,0.048-0.336,0.069-0.531,0.069
					c-0.042,0-0.083-0.002-0.123-0.005V475.6z M271.449,469.001c-0.468,0.005-0.893,0.083-1.278,0.233
					c-0.401,0.156-0.735,0.38-1.007,0.674c-0.276,0.295-0.484,0.643-0.624,1.055c-0.144,0.41-0.217,0.855-0.217,1.333
					c0,1.017,0.292,1.823,0.87,2.418c0.545,0.56,1.296,0.855,2.257,0.886v-1.077c-0.242-0.017-0.464-0.085-0.669-0.207
					c-0.24-0.145-0.431-0.356-0.578-0.635c-0.144-0.281-0.216-0.606-0.222-0.974h1.469v-0.921h-1.469l0,0
					c0.054-0.546,0.213-0.957,0.472-1.236c0.259-0.28,0.591-0.417,0.995-0.417h0.002V469.001z"/>
				<path style="fill:#FFFFFF;" d="M280.876,472.525c0.231-0.122,0.351-0.386,0.351-0.791c0-0.44-0.116-0.87-0.34-1.296
					c-0.222-0.423-0.564-0.77-1.013-1.034c-0.46-0.27-1.003-0.403-1.633-0.403l-0.05,0v1.13c0.423,0.001,0.76,0.137,1.022,0.413
					c0.257,0.273,0.407,0.688,0.447,1.241h-1.469v0.921h1.702C280.314,472.706,280.642,472.646,280.876,472.525L280.876,472.525z
					 M278.191,475.6c0.056,0.002,0.112,0.003,0.169,0.003c0.453,0,0.86-0.06,1.208-0.179c0.347-0.117,0.641-0.268,0.872-0.446
					c0.234-0.182,0.408-0.368,0.518-0.566c0.117-0.195,0.171-0.365,0.171-0.512c0-0.167-0.047-0.293-0.15-0.386
					c-0.104-0.092-0.238-0.139-0.406-0.139c-0.151,0-0.27,0.038-0.355,0.109c-0.203,0.189-0.368,0.34-0.492,0.449
					c-0.128,0.113-0.264,0.217-0.415,0.312c-0.153,0.097-0.307,0.17-0.469,0.213c-0.157,0.048-0.336,0.069-0.528,0.069
					c-0.041,0-0.082-0.001-0.123-0.004V475.6z M278.191,469.001c-0.467,0.005-0.896,0.083-1.28,0.233
					c-0.401,0.156-0.737,0.38-1.009,0.674c-0.273,0.295-0.481,0.643-0.622,1.055c-0.145,0.41-0.217,0.855-0.217,1.333
					c0,1.017,0.29,1.823,0.867,2.418c0.548,0.561,1.3,0.855,2.261,0.886v-1.077c-0.243-0.017-0.467-0.085-0.672-0.207
					c-0.238-0.145-0.431-0.356-0.575-0.635c-0.143-0.281-0.218-0.606-0.221-0.974h1.469v-0.921h-1.469l0,0
					c0.052-0.546,0.211-0.957,0.469-1.236c0.26-0.28,0.592-0.417,0.995-0.417h0.004V469.001z"/>
				<path style="fill:#FFFFFF;" d="M286.887,469.41c-0.42-0.256-0.882-0.385-1.379-0.385c-0.152,0-0.299,0.012-0.439,0.036v1.165
					l0.042-0.001c0.281,0,0.54,0.084,0.77,0.248c0.23,0.163,0.411,0.398,0.541,0.705c0.13,0.306,0.196,0.673,0.196,1.101
					c0,0.443-0.069,0.821-0.208,1.135l0,0c-0.137,0.313-0.32,0.546-0.552,0.704c-0.229,0.154-0.48,0.233-0.748,0.233l-0.042-0.001
					v1.222c0.138,0.021,0.285,0.031,0.439,0.031c0.385,0,0.741-0.077,1.079-0.227c0.334-0.153,0.622-0.372,0.869-0.654
					c0.245-0.283,0.44-0.632,0.58-1.05c0.14-0.418,0.21-0.878,0.21-1.376c0-0.677-0.122-1.261-0.366-1.757
					C287.635,470.045,287.306,469.669,286.887,469.41z M285.068,469.06c-0.243,0.041-0.469,0.118-0.674,0.231
					c-0.331,0.177-0.649,0.452-0.953,0.828v-0.195c0-0.296-0.071-0.519-0.218-0.677c-0.143-0.156-0.329-0.234-0.56-0.234
					c-0.233,0-0.418,0.078-0.553,0.228c-0.134,0.155-0.2,0.382-0.2,0.692v6.994c0,0.355,0.051,0.62,0.146,0.807
					c0.102,0.183,0.301,0.275,0.607,0.275c0.518,0,0.777-0.359,0.777-1.069v-2.433c0.287,0.358,0.587,0.634,0.901,0.817
					c0.209,0.124,0.451,0.207,0.726,0.248v-1.222c-0.435-0.011-0.795-0.189-1.09-0.536c-0.306-0.358-0.459-0.862-0.459-1.504
					c0-0.686,0.154-1.204,0.462-1.558c0.297-0.338,0.66-0.516,1.088-0.527V469.06z"/>
				<path style="fill:#FFFFFF;" d="M289.86,469.013c-0.238,0-0.428,0.08-0.58,0.245c-0.146,0.162-0.222,0.403-0.222,0.721v4.642
					c0,0.313,0.076,0.555,0.222,0.728c0.152,0.17,0.342,0.254,0.58,0.254c0.238,0,0.432-0.082,0.588-0.25
					c0.154-0.165,0.231-0.41,0.231-0.732v-4.688c0-0.287-0.077-0.513-0.231-0.675C290.292,469.092,290.098,469.013,289.86,469.013z"
					/>
				<path style="fill:#FFFFFF;" d="M289.877,466.672c-0.217,0-0.408,0.076-0.571,0.223c-0.166,0.149-0.248,0.339-0.248,0.568
					c0,0.253,0.081,0.447,0.242,0.586c0.159,0.138,0.35,0.209,0.577,0.209c0.22,0,0.408-0.071,0.566-0.21
					c0.157-0.14,0.236-0.335,0.236-0.585c0-0.257-0.082-0.454-0.244-0.591C290.275,466.739,290.09,466.672,289.877,466.672z"/>
				<path style="fill:#FFFFFF;" d="M297.218,474.042l-1.662-2.613l0.86-0.789c0.438-0.395,0.659-0.714,0.659-0.951
					c0-0.192-0.068-0.355-0.2-0.483c-0.138-0.128-0.306-0.193-0.509-0.193c-0.169,0-0.313,0.044-0.431,0.13
					c-0.122,0.086-0.29,0.251-0.517,0.486l-1.822,1.914v-3.933c0-0.329-0.075-0.581-0.221-0.751
					c-0.148-0.172-0.344-0.257-0.593-0.257c-0.255,0-0.456,0.093-0.596,0.283c-0.135,0.189-0.207,0.463-0.207,0.821v6.913
					c0,0.323,0.073,0.569,0.215,0.734c0.141,0.168,0.339,0.25,0.588,0.25c0.213,0,0.406-0.084,0.566-0.254
					c0.165-0.167,0.248-0.406,0.248-0.718v-1.291l0.88-0.83l1.428,2.353c0.181,0.278,0.329,0.471,0.436,0.58
					c0.106,0.109,0.26,0.16,0.458,0.16c0.226,0,0.413-0.074,0.553-0.221c0.142-0.151,0.214-0.352,0.214-0.61
					c0-0.089-0.029-0.19-0.082-0.289C297.43,474.382,297.339,474.238,297.218,474.042z"/>
				<path style="fill:#FFFFFF;" d="M299.41,473.816c-0.25,0-0.458,0.087-0.63,0.261c-0.17,0.173-0.256,0.381-0.256,0.622
					c0,0.287,0.09,0.51,0.268,0.665c0.179,0.159,0.389,0.238,0.634,0.238c0.237,0,0.444-0.079,0.623-0.241
					c0.175-0.157,0.264-0.38,0.264-0.662c0-0.243-0.089-0.454-0.264-0.626C299.87,473.902,299.658,473.816,299.41,473.816z"/>
				<path style="fill:#FFFFFF;" d="M306.796,472.889c-0.167,0-0.308,0.054-0.422,0.156c-0.114,0.104-0.219,0.245-0.318,0.427
					c-0.178,0.31-0.381,0.538-0.616,0.689c-0.231,0.15-0.51,0.225-0.835,0.225c-0.24,0-0.463-0.045-0.665-0.141
					c-0.201-0.094-0.372-0.23-0.516-0.409c-0.143-0.18-0.252-0.398-0.325-0.652c-0.075-0.256-0.114-0.537-0.114-0.842
					c0-0.646,0.147-1.161,0.439-1.534c0.294-0.374,0.682-0.561,1.158-0.561c0.333,0,0.607,0.075,0.821,0.227
					c0.218,0.147,0.424,0.375,0.622,0.673c0.108,0.158,0.209,0.269,0.299,0.339c0.09,0.068,0.202,0.104,0.338,0.104
					c0.202,0,0.377-0.068,0.524-0.203c0.143-0.135,0.214-0.3,0.214-0.492c0-0.192-0.063-0.397-0.192-0.617
					c-0.128-0.218-0.314-0.423-0.556-0.62c-0.245-0.192-0.54-0.352-0.89-0.474c-0.353-0.123-0.737-0.184-1.157-0.184
					c-0.674,0-1.259,0.139-1.746,0.419c-0.486,0.279-0.859,0.673-1.113,1.183c-0.259,0.511-0.387,1.098-0.387,1.765
					c0,0.981,0.281,1.764,0.841,2.349c0.562,0.582,1.344,0.876,2.349,0.876c0.469,0,0.893-0.065,1.268-0.192
					c0.377-0.126,0.688-0.295,0.934-0.502c0.249-0.207,0.434-0.425,0.554-0.656c0.121-0.229,0.182-0.446,0.182-0.646
					c0-0.169-0.067-0.331-0.198-0.481C307.158,472.966,306.993,472.889,306.796,472.889z"/>
				<path style="fill:#FFFFFF;" d="M313.607,469.926c-0.288-0.29-0.628-0.517-1.027-0.674c-0.398-0.16-0.842-0.238-1.329-0.239
					v1.199c0.486,0.002,0.876,0.184,1.164,0.555c0.289,0.367,0.435,0.881,0.435,1.543c0,0.65-0.146,1.163-0.435,1.532l0,0
					c-0.289,0.37-0.678,0.555-1.164,0.557v1.205c0.49-0.001,0.932-0.081,1.329-0.234c0.393-0.157,0.735-0.382,1.02-0.675
					c0.286-0.291,0.502-0.641,0.656-1.05c0.146-0.408,0.222-0.855,0.222-1.336c0-0.489-0.075-0.932-0.221-1.339
					C314.108,470.569,313.893,470.222,313.607,469.926z M311.251,469.013h-0.007c-0.483,0-0.924,0.078-1.326,0.234
					c-0.398,0.158-0.737,0.38-1.019,0.669c-0.281,0.288-0.498,0.636-0.649,1.045c-0.146,0.409-0.224,0.858-0.224,1.349
					c0,0.485,0.076,0.93,0.219,1.331c0.152,0.402,0.369,0.75,0.657,1.048c0.285,0.293,0.627,0.521,1.016,0.676
					c0.392,0.159,0.835,0.239,1.326,0.239h0.007v-1.205h-0.007c-0.324,0-0.605-0.086-0.846-0.253
					c-0.24-0.168-0.423-0.41-0.554-0.728c-0.129-0.317-0.193-0.684-0.193-1.108c0-0.428,0.066-0.803,0.197-1.125
					c0.131-0.321,0.314-0.563,0.556-0.727c0.242-0.164,0.522-0.246,0.84-0.246h0.007V469.013z"/>
				<path style="fill:#FFFFFF;" d="M323.529,469.286c-0.32-0.173-0.705-0.262-1.146-0.262c-0.381,0-0.726,0.08-1.039,0.241
					c-0.313,0.161-0.607,0.408-0.881,0.738c-0.192-0.326-0.431-0.573-0.725-0.736c-0.292-0.162-0.641-0.243-1.048-0.243
					c-0.394,0-0.747,0.078-1.071,0.241c-0.318,0.156-0.619,0.403-0.902,0.738v-0.153c0-0.261-0.074-0.466-0.222-0.616
					c-0.15-0.145-0.334-0.222-0.557-0.222c-0.227,0-0.412,0.078-0.555,0.239c-0.141,0.157-0.21,0.389-0.21,0.694v4.636
					c0,0.336,0.077,0.591,0.235,0.764c0.156,0.171,0.357,0.258,0.604,0.258c0.248,0,0.447-0.087,0.603-0.258
					c0.149-0.173,0.226-0.428,0.226-0.764v-2.188c0-0.684,0.086-1.206,0.253-1.566c0.168-0.369,0.516-0.551,1.048-0.551
					c0.264,0,0.459,0.072,0.582,0.22c0.121,0.141,0.198,0.331,0.227,0.552c0.027,0.227,0.04,0.544,0.04,0.953v2.581
					c0,0.341,0.078,0.594,0.232,0.767c0.148,0.17,0.349,0.255,0.594,0.255c0.254,0,0.454-0.085,0.611-0.255
					c0.155-0.173,0.23-0.426,0.23-0.767v-2.154c0-0.694,0.062-1.178,0.178-1.452c0.109-0.209,0.259-0.383,0.45-0.508
					c0.192-0.125,0.396-0.192,0.609-0.192c0.264,0,0.463,0.072,0.596,0.215c0.128,0.142,0.209,0.319,0.239,0.529
					c0.029,0.21,0.043,0.486,0.043,0.836v2.725c0,0.336,0.079,0.591,0.235,0.764c0.157,0.171,0.357,0.258,0.603,0.258
					c0.252,0,0.458-0.085,0.612-0.255c0.154-0.173,0.229-0.426,0.229-0.767v-3.163c0-0.629-0.068-1.091-0.206-1.385
					C324.088,469.71,323.849,469.46,323.529,469.286z"/>
			</g>
			<g>
				<path style="fill:#FFFFFF;" d="M245.233,471.917c-0.001-0.004-0.001-0.006-0.001-0.011
					C245.232,471.911,245.232,471.913,245.233,471.917z"/>
				<path style="fill:#FFFFFF;" d="M245.315,472.434c0.001,0,0.001,0,0.001,0c-0.03-0.147-0.055-0.294-0.073-0.438
					C245.261,472.142,245.286,472.289,245.315,472.434z"/>
				<path style="fill:#FFFFFF;" d="M245.852,473.939c-0.004-0.006-0.007-0.013-0.011-0.021
					C245.845,473.925,245.848,473.932,245.852,473.939z"/>
				<path style="fill:#FFFFFF;" d="M245.8,473.839c-0.014-0.027-0.027-0.056-0.041-0.084
					C245.773,473.784,245.786,473.811,245.8,473.839z"/>
				<path style="fill:#FFFFFF;" d="M245.466,473.014c0.079,0.25,0.175,0.492,0.285,0.724c-0.113-0.237-0.206-0.479-0.284-0.724
					H245.466z"/>
				<path style="fill:#FFFFFF;" d="M250.696,465.154l-0.076-0.259c0.299-0.063,0.523-0.329,0.523-0.646
					c0-0.364-0.296-0.659-0.66-0.659c-0.365,0-0.66,0.295-0.66,0.659c0,0.318,0.225,0.583,0.522,0.646l0.084,0.289
					c-1.021,0.14-1.834,0.539-1.834,0.539l0.144,0.44c0.617-0.206,1.153-0.331,1.639-0.383c0.476-0.051,0.834-0.073,1.126-0.073
					c0.314,0,0.544,0.025,0.809,0.069l0.075-0.476C252.389,465.301,251.658,465.076,250.696,465.154z"/>
				<path style="fill:#FFFFFF;" d="M245.413,467.661c-0.017,0.024-0.497,0.465-0.876,1.28c-0.016-0.026-0.035-0.051-0.056-0.075
					c-0.114-0.124-0.272-0.187-0.474-0.184c-0.003,0-0.006,0-0.01,0c-0.124,0-0.21-0.041-0.266-0.092
					c0.055-0.071,0.089-0.16,0.089-0.258c0-0.231-0.187-0.419-0.419-0.419c-0.23,0-0.417,0.188-0.417,0.419
					c0,0.231,0.187,0.417,0.417,0.417c0.037,0,0.071-0.006,0.105-0.012c0.103,0.113,0.265,0.214,0.504,0.209
					c0.123-0.001,0.214,0.03,0.273,0.097c0.07,0.076,0.093,0.185,0.1,0.267c-0.001,0.002-0.001,0.004-0.002,0.004
					c-0.272,0.743-0.195,1.668-0.195,1.668l0.661,0.026c0.013-0.336,0.061-0.926,0.232-1.393c0.328-0.906,0.741-1.472,0.757-1.496
					l0.003-0.005c0.024-0.031,0.047-0.06,0.071-0.089l-0.196-0.141L245.413,467.661z"/>
				<path style="fill:#FFFFFF;" d="M257.254,466.26c-0.23,0-0.418,0.186-0.418,0.417c0,0.037,0.006,0.071,0.015,0.104
					c-0.115,0.104-0.214,0.267-0.211,0.507c0.002,0.123-0.03,0.212-0.096,0.273c-0.053,0.047-0.12,0.072-0.185,0.088
					c-0.492-0.689-1.097-1.109-1.097-1.109l-0.474,0.509c0.358,0.326,0.725,0.734,1.08,1.244c0.246,0.352,0.499,0.806,0.71,1.259
					l0.64-0.304c0,0-0.292-0.722-0.704-1.369c0.071-0.025,0.143-0.064,0.207-0.12c0.125-0.113,0.187-0.273,0.183-0.473
					c-0.001-0.13,0.041-0.218,0.093-0.276c0.071,0.054,0.16,0.089,0.257,0.089c0.232,0,0.419-0.187,0.419-0.419
					C257.672,466.447,257.486,466.26,257.254,466.26z"/>
				<path style="fill:#FFFFFF;" d="M255.593,472.01c-0.88,0.429-2.33,0.996-4.237,1.262c-0.749,0.104-1.474,0.142-2.143,0.142
					c-0.869,0-1.637-0.065-2.226-0.139c-0.672-0.085-1.198-0.189-1.52-0.261c0.078,0.245,0.171,0.487,0.284,0.724
					c0.002,0.006,0.005,0.013,0.008,0.017c0.013,0.027,0.027,0.056,0.041,0.084c0.013,0.027,0.027,0.054,0.041,0.079
					c0.004,0.007,0.007,0.014,0.011,0.021c0.189,0.356,0.417,0.684,0.675,0.968c0.9,0.984,1.816,1.139,1.825,1.141l0.014,0.002
					l0.014,0.005c0.008,0.003,0.821,0.265,2.056,0.265c1.215,0,2.409-0.245,3.546-0.728c0.842-0.431,1.638-1.085,2.033-1.669
					c0.305-0.452,0.526-0.934,0.656-1.434c0.069-0.266,0.124-0.693,0.092-1.141C256.515,471.515,256.124,471.752,255.593,472.01z"/>
				<path style="fill:#FFFFFF;" d="M253.789,472.17c0.634-0.208,1.156-0.432,1.555-0.626c0.701-0.34,1.151-0.647,1.325-0.774
					c-0.173-0.643-0.651-1.65-1.089-2.279c-0.603-0.861-1.228-1.414-1.792-1.769v1.187c0.601,0,1.089,0.487,1.089,1.089
					c0,0.601-0.488,1.09-1.089,1.09V472.17z M252.282,466.128c-0.264-0.043-0.477-0.068-0.777-0.068
					c-0.279,0-0.626,0.022-1.089,0.071c-0.465,0.049-0.982,0.171-1.583,0.373c-0.065,0.022-0.13,0.044-0.194,0.068v1.296
					c0.973,0.001,1.76,0.789,1.76,1.761c0,0.972-0.787,1.758-1.76,1.759v1.49c0.809,0.028,1.711,0.002,2.644-0.128
					c0.962-0.134,1.802-0.347,2.506-0.579v-2.08h0l0,0c-0.601,0-1.089-0.489-1.089-1.09c0-0.602,0.488-1.089,1.089-1.089h0v-1.187
					C253.18,466.34,252.642,466.188,252.282,466.128z M248.64,466.572c-0.765,0.283-1.456,0.699-2.01,1.212l-0.02,0.019
					c-0.089,0.081-0.275,0.254-0.488,0.526c-0.025,0.037-0.408,0.578-0.709,1.408c-0.226,0.622-0.216,1.527-0.216,1.537v0.002
					c0,0.212,0.012,0.423,0.036,0.632c0,0.005,0,0.007,0.001,0.011c0.002,0.027,0.007,0.052,0.01,0.079
					c0.018,0.144,0.043,0.291,0.074,0.438c0.298,0.076,1.601,0.382,3.323,0.442v-1.49h-0.001l0,0c-0.972,0-1.759-0.787-1.759-1.759
					c0-0.972,0.788-1.761,1.759-1.761h0.001V466.572z"/>
			</g>
		</g>
	</g>
</g>
</svg>
